<?xml version="1.0" encoding="UTF-8"?>
<svg xmlns="http://www.w3.org/2000/svg" xmlns:xlink="http://www.w3.org/1999/xlink" viewBox="0 0 80.68 80.68">
  <defs>
    <style>
      .cls-1 {
        fill: url(#_未命名的渐变_7-2);
      }

      .cls-2 {
        clip-path: url(#clippath-6);
      }

      .cls-3 {
        clip-path: url(#clippath-7);
      }

      .cls-4 {
        clip-path: url(#clippath-4);
      }

      .cls-5 {
        fill: url(#_未命名的渐变_5);
      }

      .cls-6 {
        fill: #3b147a;
      }

      .cls-7 {
        fill: #42129e;
      }

      .cls-8 {
        clip-path: url(#clippath-9);
      }

      .cls-9 {
        fill: #7536d5;
      }

      .cls-10 {
        mask: url(#mask);
      }

      .cls-11 {
        fill: none;
      }

      .cls-12 {
        fill: #4513a5;
      }

      .cls-13 {
        fill: #c0a7fc;
      }

      .cls-14 {
        clip-path: url(#clippath-1);
      }

      .cls-15 {
        isolation: isolate;
      }

      .cls-16 {
        clip-path: url(#clippath-5);
      }

      .cls-17 {
        clip-path: url(#clippath-8);
      }

      .cls-18 {
        fill: url(#_未命名的渐变_7);
      }

      .cls-19 {
        clip-path: url(#clippath-3);
      }

      .cls-20 {
        fill: url(#_未命名的渐变_3);
      }

      .cls-21 {
        mix-blend-mode: screen;
      }

      .cls-22 {
        clip-path: url(#clippath-2);
      }

      .cls-23 {
        fill: url(#_未命名的渐变_4);
      }

      .cls-24 {
        clip-path: url(#clippath);
      }

      .cls-25 {
        mix-blend-mode: hard-light;
      }

      .cls-26 {
        fill: url(#_未命名的渐变_7-3);
      }

      .cls-27 {
        fill: url(#_未命名的渐变_2);
      }
    </style>
    <radialGradient id="_未命名的渐变_5" data-name="未命名的渐变 5" cx="629.1" cy="-74.86" fx="629.1" fy="-74.86" r="92.66" gradientTransform="translate(-641.12 115.38)" gradientUnits="userSpaceOnUse">
      <stop offset="0" stop-color="#000"/>
      <stop offset=".31" stop-color="#000002"/>
      <stop offset=".45" stop-color="#040209"/>
      <stop offset=".56" stop-color="#090516"/>
      <stop offset=".65" stop-color="#110a28"/>
      <stop offset=".72" stop-color="#1b113f"/>
      <stop offset=".8" stop-color="#27185c"/>
      <stop offset=".86" stop-color="#35217e"/>
      <stop offset=".9" stop-color="#412999"/>
      <stop offset=".92" stop-color="#472fa0"/>
      <stop offset=".94" stop-color="#5a42b4"/>
      <stop offset=".97" stop-color="#7960d5"/>
      <stop offset="1" stop-color="#9c82fa"/>
      <stop offset="1" stop-color="#9c82fa"/>
    </radialGradient>
    <clipPath id="clippath">
      <path class="cls-11" d="M80.68,40.34c0,22.28-18.06,40.34-40.34,40.34S0,62.62,0,40.34,18.06,0,40.34,0s40.34,18.06,40.34,40.34"/>
    </clipPath>
    <clipPath id="clippath-1">
      <rect class="cls-11" x="-37.36" y="-3.64" width="161.92" height="71.5"/>
    </clipPath>
    <clipPath id="clippath-2">
      <rect class="cls-11" x="-37.36" y="-3.64" width="161.92" height="71.5"/>
    </clipPath>
    <radialGradient id="_未命名的渐变_3" data-name="未命名的渐变 3" cx="-225.85" cy="386.66" fx="-225.85" fy="386.66" r="1.05" gradientTransform="translate(-34050.5 19905.01) rotate(90) scale(88.17 -88.17)" gradientUnits="userSpaceOnUse">
      <stop offset="0" stop-color="#fff"/>
      <stop offset=".33" stop-color="#fdfdfd"/>
      <stop offset=".46" stop-color="#f6f6f6"/>
      <stop offset=".55" stop-color="#e9e9e9"/>
      <stop offset=".63" stop-color="#d8d8d8"/>
      <stop offset=".7" stop-color="#c1c1c1"/>
      <stop offset=".76" stop-color="#a6a6a6"/>
      <stop offset=".81" stop-color="#848484"/>
      <stop offset=".86" stop-color="#5e5e5e"/>
      <stop offset=".91" stop-color="#333"/>
      <stop offset=".95" stop-color="#040404"/>
      <stop offset=".95" stop-color="#000"/>
      <stop offset="1" stop-color="#000"/>
    </radialGradient>
    <mask id="mask" x="-44.72" y="-3.64" width="176.64" height="78" maskUnits="userSpaceOnUse">
      <rect class="cls-20" x="-44.72" y="-3.64" width="176.64" height="78"/>
    </mask>
    <radialGradient id="_未命名的渐变_2" data-name="未命名的渐变 2" cx="-225.85" cy="386.66" fx="-225.85" fy="386.66" r="1.05" gradientTransform="translate(-34050.5 19905.01) rotate(90) scale(88.17 -88.17)" gradientUnits="userSpaceOnUse">
      <stop offset="0" stop-color="#000"/>
      <stop offset=".33" stop-color="#010001"/>
      <stop offset=".46" stop-color="#050408"/>
      <stop offset=".55" stop-color="#0c0a15"/>
      <stop offset=".63" stop-color="#161226"/>
      <stop offset=".7" stop-color="#231d3d"/>
      <stop offset=".76" stop-color="#342a58"/>
      <stop offset=".81" stop-color="#473a7a"/>
      <stop offset=".86" stop-color="#5e4da0"/>
      <stop offset=".91" stop-color="#7761ca"/>
      <stop offset=".95" stop-color="#9378f9"/>
      <stop offset=".95" stop-color="#957afd"/>
      <stop offset="1" stop-color="#957afd"/>
    </radialGradient>
    <clipPath id="clippath-3">
      <path class="cls-11" d="M0,40.34c0,22.28,18.06,40.34,40.34,40.34s40.34-18.06,40.34-40.34S62.62,0,40.34,0,0,18.06,0,40.34"/>
    </clipPath>
    <clipPath id="clippath-4">
      <rect class="cls-11" x="-9.09" y="59.58" width="95.08" height="8.68"/>
    </clipPath>
    <clipPath id="clippath-5">
      <path class="cls-11" d="M85.99,68.26c-.43-1.8-20.75-8.68-46.75-8.68s-47.91,6.88-48.34,8.68h95.08Z"/>
    </clipPath>
    <radialGradient id="_未命名的渐变_7" data-name="未命名的渐变 7" cx="-233.54" cy="391.68" fx="-233.54" fy="391.68" r=".96" gradientTransform="translate(11606.3 1630.14) scale(49.53 -3.99)" gradientUnits="userSpaceOnUse">
      <stop offset="0" stop-color="#fff"/>
      <stop offset=".03" stop-color="#f7f7ff"/>
      <stop offset=".07" stop-color="#e2e2ff"/>
      <stop offset=".07" stop-color="#dfdfff"/>
      <stop offset=".09" stop-color="#cfccff"/>
      <stop offset=".13" stop-color="#a79bff"/>
      <stop offset=".16" stop-color="#7e69ff"/>
      <stop offset=".23" stop-color="#6655d0"/>
      <stop offset=".3" stop-color="#4e419f"/>
      <stop offset=".38" stop-color="#393074"/>
      <stop offset=".46" stop-color="#272150"/>
      <stop offset=".55" stop-color="#191533"/>
      <stop offset=".64" stop-color="#0e0b1c"/>
      <stop offset=".74" stop-color="#06050c"/>
      <stop offset=".85" stop-color="#010102"/>
      <stop offset="1" stop-color="#000"/>
    </radialGradient>
    <clipPath id="clippath-6">
      <rect class="cls-11" x="-9.09" y="68.26" width="95.08" height="2.18"/>
    </clipPath>
    <clipPath id="clippath-7">
      <path class="cls-11" d="M85.99,68.26c-.43,1.04-21.54,2.18-47.54,2.18s-47.11-1.14-47.54-2.18h95.08Z"/>
    </clipPath>
    <radialGradient id="_未命名的渐变_7-2" data-name="未命名的渐变 7" cx="-233.54" cy="389.77" fx="-233.54" fy="389.77" r=".96" gradientTransform="translate(11599.36 -832.41) scale(49.5 2.31)" xlink:href="#_未命名的渐变_7"/>
    <clipPath id="clippath-8">
      <rect class="cls-11" x="1.51" y="60.8" width="73.88" height="7.46"/>
    </clipPath>
    <clipPath id="clippath-9">
      <path class="cls-11" d="M75.39,68.26c-.34-3.54-15.95-7.46-36.15-7.46S1.84,64.71,1.51,68.26h73.88Z"/>
    </clipPath>
    <radialGradient id="_未命名的渐变_7-3" data-name="未命名的渐变 7" cx="-235.73" cy="392.28" fx="-235.73" fy="392.28" r=".96" gradientTransform="translate(9122.38 910.45) scale(38.53 -2.15)" xlink:href="#_未命名的渐变_7"/>
    <linearGradient id="_未命名的渐变_4" data-name="未命名的渐变 4" x1="26.46" y1="29.61" x2="52.4" y2="46.16" gradientUnits="userSpaceOnUse">
      <stop offset="0" stop-color="#d1d7e2"/>
      <stop offset=".18" stop-color="#c6cad9"/>
      <stop offset=".52" stop-color="#aaabc1"/>
      <stop offset=".95" stop-color="#7d779c"/>
      <stop offset="1" stop-color="#797298"/>
    </linearGradient>
  </defs>
  <g class="cls-15">
    <g id="_图层_2" data-name="图层 2">
      <g id="_图层_1-2" data-name="图层 1">
        <g>
          <rect class="cls-5" x=".04" y=".09" width="80.59" height="80.59" rx="40.29" ry="40.29" transform="translate(80.72 .04) rotate(90)"/>
          <path class="cls-11" d="M0,40.34c0,22.28,18.06,40.34,40.34,40.34s40.34-18.06,40.34-40.34S62.62,0,40.34,0,0,18.06,0,40.34"/>
          <g class="cls-24">
            <rect class="cls-9" x=".1" y="59.8" width="2.14" height="2.2"/>
            <rect class="cls-9" x=".1" y="65.92" width="2.14" height="2.2"/>
            <rect class="cls-9" x=".1" y="62.86" width="2.14" height="2.2"/>
            <rect class="cls-9" x="3.02" y="62.86" width="2.14" height="2.2"/>
            <rect class="cls-12" x="3.02" y="41.43" width="2.14" height="2.2"/>
            <rect class="cls-12" x="3.02" y="38.37" width="2.14" height="2.2"/>
            <rect class="cls-12" x="3.02" y="35.31" width="2.14" height="2.2"/>
            <rect class="cls-9" x="3.02" y="56.74" width="2.14" height="2.2"/>
            <rect class="cls-9" x="3.02" y="53.68" width="2.14" height="2.2"/>
            <polygon class="cls-9" points="3.02 46.13 3.02 46.69 5.16 46.69 5.16 44.49 3.02 44.49 3.02 46.13"/>
            <rect class="cls-9" x="3.02" y="59.8" width="2.14" height="2.2"/>
            <rect class="cls-9" x="3.02" y="47.56" width="2.14" height="2.2"/>
            <rect class="cls-13" x="3.02" y="50.62" width="2.14" height="2.2"/>
            <rect class="cls-12" x="3.02" y="32.25" width="2.14" height="2.2"/>
            <rect class="cls-9" x=".1" y="56.74" width="2.14" height="2.2"/>
            <rect class="cls-9" x=".1" y="47.56" width="2.14" height="2.2"/>
            <rect class="cls-9" x=".1" y="53.68" width="2.14" height="2.2"/>
            <rect class="cls-9" x=".1" y="50.62" width="2.14" height="2.2"/>
            <polygon class="cls-9" points=".1 46.13 .1 46.69 2.24 46.69 2.24 44.49 .1 44.49 .1 46.13"/>
            <rect class="cls-9" x=".1" y="41.43" width="2.14" height="2.2"/>
            <rect class="cls-9" x="3.02" y="65.92" width="2.14" height="2.2"/>
            <rect class="cls-9" x="20.53" y="56.74" width="2.14" height="2.2"/>
            <rect class="cls-9" x="20.53" y="59.8" width="2.14" height="2.2"/>
            <rect class="cls-9" x="20.53" y="62.86" width="2.14" height="2.2"/>
            <rect class="cls-9" x="20.53" y="65.92" width="2.14" height="2.2"/>
            <rect class="cls-9" x="20.53" y="32.25" width="2.14" height="2.2"/>
            <rect class="cls-13" x="20.53" y="50.62" width="2.14" height="2.2"/>
            <rect class="cls-9" x="20.53" y="47.56" width="2.14" height="2.2"/>
            <polygon class="cls-9" points="20.53 46.13 20.53 46.69 22.67 46.69 22.67 44.49 20.53 44.49 20.53 46.13"/>
            <rect class="cls-9" x="20.53" y="53.68" width="2.14" height="2.2"/>
            <rect class="cls-9" x="20.53" y="38.37" width="2.14" height="2.2"/>
            <rect class="cls-9" x="20.53" y="41.43" width="2.14" height="2.2"/>
            <rect class="cls-9" x="20.53" y="35.31" width="2.14" height="2.2"/>
            <rect class="cls-13" x="17.61" y="65.92" width="2.14" height="2.2"/>
            <rect class="cls-9" x="17.61" y="53.68" width="2.14" height="2.2"/>
            <rect class="cls-13" x="17.61" y="62.86" width="2.14" height="2.2"/>
            <rect class="cls-13" x="17.61" y="59.8" width="2.14" height="2.2"/>
            <rect class="cls-9" x="17.61" y="56.74" width="2.14" height="2.2"/>
            <rect class="cls-9" x="17.61" y="47.56" width="2.14" height="2.2"/>
            <rect class="cls-9" x="17.61" y="41.43" width="2.14" height="2.2"/>
            <polygon class="cls-9" points="17.61 46.13 17.61 46.69 19.75 46.69 19.75 44.49 17.61 44.49 17.61 46.13"/>
            <rect class="cls-9" x="17.61" y="50.62" width="2.14" height="2.2"/>
            <rect class="cls-9" x="17.61" y="38.37" width="2.14" height="2.2"/>
            <rect class="cls-9" x="17.61" y="35.31" width="2.14" height="2.2"/>
            <rect class="cls-9" x="26.37" y="41.43" width="2.14" height="2.2"/>
            <rect class="cls-9" x="26.37" y="65.92" width="2.14" height="2.2"/>
            <polygon class="cls-9" points="26.37 46.13 26.37 46.69 28.51 46.69 28.51 44.49 26.37 44.49 26.37 46.13"/>
            <rect class="cls-9" x="26.37" y="56.74" width="2.14" height="2.2"/>
            <rect class="cls-9" x="26.37" y="47.56" width="2.14" height="2.2"/>
            <rect class="cls-9" x="26.37" y="62.86" width="2.14" height="2.2"/>
            <rect class="cls-9" x="26.37" y="59.8" width="2.14" height="2.2"/>
            <rect class="cls-6" x="26.37" y="50.62" width="2.14" height="2.2"/>
            <rect class="cls-9" x="26.37" y="53.68" width="2.14" height="2.2"/>
            <rect class="cls-9" x="23.45" y="65.92" width="2.14" height="2.2"/>
            <rect class="cls-9" x="23.45" y="62.86" width="2.14" height="2.2"/>
            <rect class="cls-9" x="23.45" y="56.74" width="2.14" height="2.2"/>
            <rect class="cls-9" x="23.45" y="53.68" width="2.14" height="2.2"/>
            <rect class="cls-13" x="23.45" y="59.8" width="2.14" height="2.2"/>
            <rect class="cls-9" x="23.45" y="41.43" width="2.14" height="2.2"/>
            <rect class="cls-9" x="23.45" y="50.62" width="2.14" height="2.2"/>
            <rect class="cls-9" x="23.45" y="47.56" width="2.14" height="2.2"/>
            <polygon class="cls-9" points="23.45 46.13 23.45 46.69 25.59 46.69 25.59 44.49 23.45 44.49 23.45 46.13"/>
            <rect class="cls-13" x="8.86" y="47.56" width="2.14" height="2.2"/>
            <polygon class="cls-9" points="8.86 46.13 8.86 46.69 11 46.69 11 44.49 8.86 44.49 8.86 46.13"/>
            <rect class="cls-13" x="8.86" y="50.62" width="2.14" height="2.2"/>
            <rect class="cls-13" x="8.86" y="53.68" width="2.14" height="2.2"/>
            <rect class="cls-9" x="8.86" y="56.74" width="2.14" height="2.2"/>
            <rect class="cls-9" x="8.86" y="65.92" width="2.14" height="2.2"/>
            <rect class="cls-9" x="8.86" y="62.86" width="2.14" height="2.2"/>
            <rect class="cls-6" x="8.86" y="59.8" width="2.14" height="2.2"/>
            <rect class="cls-9" x="5.94" y="41.43" width="2.14" height="2.2"/>
            <rect class="cls-13" x="5.94" y="47.56" width="2.14" height="2.2"/>
            <rect class="cls-9" x="5.94" y="38.37" width="2.14" height="2.2"/>
            <rect class="cls-9" x="5.94" y="35.31" width="2.14" height="2.2"/>
            <polygon class="cls-9" points="5.94 46.13 5.94 46.69 8.08 46.69 8.08 44.49 5.94 44.49 5.94 46.13"/>
            <rect class="cls-9" x="5.94" y="59.8" width="2.14" height="2.2"/>
            <rect class="cls-9" x="5.94" y="62.86" width="2.14" height="2.2"/>
            <rect class="cls-9" x="5.94" y="50.62" width="2.14" height="2.2"/>
            <rect class="cls-9" x="5.94" y="65.92" width="2.14" height="2.2"/>
            <rect class="cls-9" x="5.94" y="53.68" width="2.14" height="2.2"/>
            <rect class="cls-9" x="5.94" y="56.74" width="2.14" height="2.2"/>
            <rect class="cls-6" x="14.69" y="56.74" width="2.14" height="2.2"/>
            <rect class="cls-9" x="14.69" y="65.92" width="2.14" height="2.2"/>
            <rect class="cls-6" x="14.69" y="62.86" width="2.14" height="2.2"/>
            <rect class="cls-9" x="14.69" y="59.8" width="2.14" height="2.2"/>
            <rect class="cls-9" x="14.69" y="50.62" width="2.14" height="2.2"/>
            <rect class="cls-9" x="14.69" y="53.68" width="2.14" height="2.2"/>
            <rect class="cls-9" x="14.69" y="47.56" width="2.14" height="2.2"/>
            <polygon class="cls-9" points="14.69 46.13 14.69 46.69 16.84 46.69 16.84 44.49 14.69 44.49 14.69 46.13"/>
            <rect class="cls-9" x="14.69" y="41.43" width="2.14" height="2.2"/>
            <rect class="cls-9" x="11.78" y="50.62" width="2.14" height="2.2"/>
            <rect class="cls-6" x="11.78" y="56.74" width="2.14" height="2.2"/>
            <rect class="cls-9" x="11.78" y="53.68" width="2.14" height="2.2"/>
            <rect class="cls-9" x="11.78" y="47.56" width="2.14" height="2.2"/>
            <polygon class="cls-9" points="11.78 46.13 11.78 46.69 13.92 46.69 13.92 44.49 11.78 44.49 11.78 46.13"/>
            <rect class="cls-9" x="11.78" y="59.8" width="2.14" height="2.2"/>
            <rect class="cls-9" x="11.78" y="65.92" width="2.14" height="2.2"/>
            <rect class="cls-6" x="11.78" y="62.86" width="2.14" height="2.2"/>
            <rect class="cls-9" x="75.99" y="41.43" width="2.14" height="2.2"/>
            <rect class="cls-9" x="75.99" y="47.56" width="2.14" height="2.2"/>
            <rect class="cls-9" x="75.99" y="50.62" width="2.14" height="2.2"/>
            <rect class="cls-9" x="75.99" y="53.68" width="2.14" height="2.2"/>
            <polygon class="cls-9" points="75.99 46.13 75.99 46.69 78.13 46.69 78.13 44.49 75.99 44.49 75.99 46.13"/>
            <rect class="cls-9" x="75.99" y="56.74" width="2.14" height="2.2"/>
            <rect class="cls-9" x="75.99" y="59.8" width="2.14" height="2.2"/>
            <rect class="cls-9" x="75.99" y="62.86" width="2.14" height="2.2"/>
            <rect class="cls-9" x="75.99" y="65.92" width="2.14" height="2.2"/>
            <rect class="cls-9" x="75.99" y="38.37" width="2.14" height="2.2"/>
            <polygon class="cls-9" points="73.07 46.13 73.07 46.69 75.21 46.69 75.21 44.49 73.07 44.49 73.07 46.13"/>
            <rect class="cls-9" x="73.07" y="41.43" width="2.14" height="2.2"/>
            <rect class="cls-9" x="73.07" y="47.56" width="2.14" height="2.2"/>
            <rect class="cls-9" x="73.07" y="38.37" width="2.14" height="2.2"/>
            <rect class="cls-13" x="73.07" y="50.62" width="2.14" height="2.2"/>
            <rect class="cls-9" x="73.07" y="53.68" width="2.14" height="2.2"/>
            <rect class="cls-9" x="73.07" y="62.86" width="2.14" height="2.2"/>
            <rect class="cls-9" x="73.07" y="65.92" width="2.14" height="2.2"/>
            <rect class="cls-9" x="73.07" y="59.8" width="2.14" height="2.2"/>
            <rect class="cls-9" x="73.07" y="56.74" width="2.14" height="2.2"/>
            <rect class="cls-9" x="78.91" y="56.74" width="2.14" height="2.2"/>
            <rect class="cls-9" x="78.91" y="62.86" width="2.14" height="2.2"/>
            <rect class="cls-9" x="78.91" y="59.8" width="2.14" height="2.2"/>
            <rect class="cls-9" x="78.91" y="53.68" width="2.14" height="2.2"/>
            <rect class="cls-9" x="78.91" y="50.62" width="2.14" height="2.2"/>
            <rect class="cls-9" x="78.91" y="65.92" width="2.14" height="2.2"/>
            <rect class="cls-9" x="40.96" y="32.25" width="2.14" height="2.2"/>
            <rect class="cls-9" x="40.96" y="38.37" width="2.14" height="2.2"/>
            <polygon class="cls-9" points="40.96 46.13 40.96 46.69 43.1 46.69 43.1 44.49 40.96 44.49 40.96 46.13"/>
            <rect class="cls-9" x="40.96" y="53.68" width="2.14" height="2.2"/>
            <rect class="cls-13" x="40.96" y="50.62" width="2.14" height="2.2"/>
            <rect class="cls-9" x="40.96" y="41.43" width="2.14" height="2.2"/>
            <rect class="cls-9" x="40.96" y="35.31" width="2.14" height="2.2"/>
            <rect class="cls-9" x="40.96" y="47.56" width="2.14" height="2.2"/>
            <rect class="cls-9" x="43.88" y="65.92" width="2.14" height="2.2"/>
            <rect class="cls-9" x="43.88" y="62.86" width="2.14" height="2.2"/>
            <rect class="cls-9" x="43.88" y="59.8" width="2.14" height="2.2"/>
            <rect class="cls-9" x="38.04" y="47.56" width="2.14" height="2.2"/>
            <rect class="cls-9" x="38.04" y="38.37" width="2.14" height="2.2"/>
            <rect class="cls-9" x="38.04" y="41.43" width="2.14" height="2.2"/>
            <rect class="cls-9" x="40.96" y="56.74" width="2.14" height="2.2"/>
            <polygon class="cls-9" points="38.04 46.13 38.04 46.69 40.18 46.69 40.18 44.49 38.04 44.49 38.04 46.13"/>
            <rect class="cls-9" x="40.96" y="65.92" width="2.14" height="2.2"/>
            <rect class="cls-9" x="40.96" y="62.86" width="2.14" height="2.2"/>
            <rect class="cls-9" x="40.96" y="59.8" width="2.14" height="2.2"/>
            <rect class="cls-9" x="46.8" y="35.31" width="2.14" height="2.2"/>
            <rect class="cls-9" x="46.8" y="38.37" width="2.14" height="2.2"/>
            <rect class="cls-9" x="46.8" y="41.43" width="2.14" height="2.2"/>
            <rect class="cls-13" x="46.8" y="56.74" width="2.14" height="2.2"/>
            <rect class="cls-9" x="46.8" y="53.68" width="2.14" height="2.2"/>
            <rect class="cls-13" x="46.8" y="62.86" width="2.14" height="2.2"/>
            <rect class="cls-9" x="46.8" y="47.56" width="2.14" height="2.2"/>
            <rect class="cls-9" x="46.8" y="50.62" width="2.14" height="2.2"/>
            <polygon class="cls-9" points="46.8 46.13 46.8 46.69 48.94 46.69 48.94 44.49 46.8 44.49 46.8 46.13"/>
            <rect class="cls-13" x="46.8" y="59.8" width="2.14" height="2.2"/>
            <rect class="cls-9" x="43.88" y="29.19" width="2.14" height="2.2"/>
            <rect class="cls-9" x="43.88" y="32.25" width="2.14" height="2.2"/>
            <rect class="cls-9" x="43.88" y="35.31" width="2.14" height="2.2"/>
            <rect class="cls-9" x="46.8" y="65.92" width="2.14" height="2.2"/>
            <rect class="cls-9" x="43.88" y="47.56" width="2.14" height="2.2"/>
            <rect class="cls-9" x="43.88" y="50.62" width="2.14" height="2.2"/>
            <rect class="cls-9" x="43.88" y="53.68" width="2.14" height="2.2"/>
            <rect class="cls-9" x="43.88" y="41.43" width="2.14" height="2.2"/>
            <polygon class="cls-13" points="43.88 46.13 43.88 46.69 46.02 46.69 46.02 44.49 43.88 44.49 43.88 46.13"/>
            <rect class="cls-9" x="43.88" y="38.37" width="2.14" height="2.2"/>
            <rect class="cls-6" x="43.88" y="56.74" width="2.14" height="2.2"/>
            <polygon class="cls-9" points="32.21 38.37 32.21 40.57 34.35 40.57 34.35 38.37 34.33 38.37 32.21 38.37"/>
            <polygon class="cls-9" points="32.21 47.56 32.21 49.76 34.35 49.76 34.35 47.56 34.33 47.56 32.21 47.56"/>
            <polygon class="cls-9" points="32.21 50.62 32.21 52.82 34.35 52.82 34.35 50.62 34.33 50.62 32.21 50.62"/>
            <polygon class="cls-9" points="32.21 53.68 32.21 55.88 34.35 55.88 34.35 53.68 34.33 53.68 32.21 53.68"/>
            <polygon class="cls-9" points="32.21 41.43 32.21 43.63 34.35 43.63 34.35 41.43 34.33 41.43 32.21 41.43"/>
            <polygon class="cls-9" points="32.21 44.49 32.21 46.13 32.21 46.69 34.35 46.69 34.35 44.49 34.33 44.49 32.21 44.49"/>
            <polygon class="cls-6" points="32.21 56.74 32.21 58.94 34.35 58.94 34.35 56.74 34.33 56.74 32.21 56.74"/>
            <polygon class="cls-9" points="32.21 59.8 32.21 62 34.35 62 34.35 59.8 34.33 59.8 32.21 59.8"/>
            <polygon class="cls-13" points="32.21 62.86 32.21 65.06 34.35 65.06 34.35 62.86 34.33 62.86 32.21 62.86"/>
            <polygon class="cls-9" points="32.21 65.92 32.21 68.12 34.35 68.12 34.35 65.92 34.33 65.92 32.21 65.92"/>
            <rect class="cls-6" x="29.29" y="50.62" width="2.14" height="2.2"/>
            <rect class="cls-9" x="29.29" y="47.56" width="2.14" height="2.2"/>
            <rect class="cls-9" x="29.29" y="41.43" width="2.14" height="2.2"/>
            <polygon class="cls-9" points="29.29 46.13 29.29 46.69 31.43 46.69 31.43 44.49 29.29 44.49 29.29 46.13"/>
            <rect class="cls-9" x="29.29" y="35.31" width="2.14" height="2.2"/>
            <rect class="cls-9" x="29.29" y="38.37" width="2.14" height="2.2"/>
            <rect class="cls-9" x="29.29" y="65.92" width="2.14" height="2.2"/>
            <rect class="cls-9" x="29.29" y="62.86" width="2.14" height="2.2"/>
            <rect class="cls-9" x="29.29" y="56.74" width="2.14" height="2.2"/>
            <rect class="cls-9" x="29.29" y="59.8" width="2.14" height="2.2"/>
            <rect class="cls-9" x="29.29" y="53.68" width="2.14" height="2.2"/>
            <rect class="cls-9" x="38.04" y="50.62" width="2.14" height="2.2"/>
            <rect class="cls-9" x="38.04" y="62.86" width="2.14" height="2.2"/>
            <rect class="cls-9" x="38.04" y="65.92" width="2.14" height="2.2"/>
            <rect class="cls-9" x="38.04" y="59.8" width="2.14" height="2.2"/>
            <rect class="cls-9" x="38.04" y="53.68" width="2.14" height="2.2"/>
            <rect class="cls-9" x="38.04" y="56.74" width="2.14" height="2.2"/>
            <rect class="cls-9" x="35.13" y="41.43" width="2.14" height="2.2"/>
            <polygon class="cls-9" points="35.13 46.13 35.13 46.69 37.27 46.69 37.27 44.49 35.13 44.49 35.13 46.13"/>
            <polygon class="cls-9" points="32.21 32.25 32.21 34.45 34.35 34.45 34.35 32.25 34.33 32.25 32.21 32.25"/>
            <rect class="cls-13" x="35.13" y="62.86" width="2.14" height="2.2"/>
            <rect class="cls-6" x="35.13" y="56.74" width="2.14" height="2.2"/>
            <rect class="cls-9" x="35.13" y="59.8" width="2.14" height="2.2"/>
            <rect class="cls-9" x="35.13" y="53.68" width="2.14" height="2.2"/>
            <rect class="cls-9" x="35.13" y="50.62" width="2.14" height="2.2"/>
            <rect class="cls-9" x="35.13" y="47.56" width="2.14" height="2.2"/>
            <polygon class="cls-9" points="32.21 35.31 32.21 37.51 34.35 37.51 34.35 35.31 34.33 35.31 32.21 35.31"/>
            <rect class="cls-13" x="35.13" y="65.92" width="2.14" height="2.2"/>
            <rect class="cls-9" x="64.31" y="59.8" width="2.14" height="2.2"/>
            <rect class="cls-9" x="64.31" y="62.86" width="2.14" height="2.2"/>
            <rect class="cls-9" x="64.31" y="65.92" width="2.14" height="2.2"/>
            <rect class="cls-9" x="64.31" y="56.74" width="2.14" height="2.2"/>
            <rect class="cls-9" x="64.31" y="29.19" width="2.14" height="2.2"/>
            <rect class="cls-9" x="64.31" y="32.25" width="2.14" height="2.2"/>
            <polygon class="cls-9" points="64.31 46.13 64.31 46.69 66.45 46.69 66.45 44.49 64.31 44.49 64.31 46.13"/>
            <rect class="cls-9" x="64.31" y="35.31" width="2.14" height="2.2"/>
            <rect class="cls-13" x="64.31" y="47.56" width="2.14" height="2.2"/>
            <rect class="cls-9" x="64.31" y="50.62" width="2.14" height="2.2"/>
            <rect class="cls-9" x="64.31" y="53.68" width="2.14" height="2.2"/>
            <rect class="cls-9" x="64.31" y="41.43" width="2.14" height="2.2"/>
            <rect class="cls-9" x="64.31" y="38.37" width="2.14" height="2.2"/>
            <rect class="cls-9" x="61.39" y="29.19" width="2.14" height="2.2"/>
            <rect class="cls-6" x="61.39" y="62.86" width="2.14" height="2.2"/>
            <rect class="cls-9" x="61.39" y="65.92" width="2.14" height="2.2"/>
            <rect class="cls-6" x="61.39" y="59.8" width="2.14" height="2.2"/>
            <rect class="cls-13" x="61.39" y="53.68" width="2.14" height="2.2"/>
            <rect class="cls-9" x="61.39" y="56.74" width="2.14" height="2.2"/>
            <rect class="cls-13" x="61.39" y="50.62" width="2.14" height="2.2"/>
            <rect class="cls-9" x="61.39" y="26.13" width="2.14" height="2.2"/>
            <polygon class="cls-9" points="61.39 46.13 61.39 46.69 63.53 46.69 63.53 44.49 61.39 44.49 61.39 46.13"/>
            <rect class="cls-9" x="61.39" y="32.25" width="2.14" height="2.2"/>
            <rect class="cls-7" x="61.39" y="41.43" width="2.14" height="2.2"/>
            <rect class="cls-13" x="61.39" y="47.56" width="2.14" height="2.2"/>
            <rect class="cls-7" x="61.39" y="35.31" width="2.14" height="2.2"/>
            <rect class="cls-7" x="61.39" y="38.37" width="2.14" height="2.2"/>
            <polygon class="cls-9" points="70.15 46.13 70.15 46.69 72.29 46.69 72.29 44.49 70.15 44.49 70.15 46.13"/>
            <rect class="cls-9" x="70.15" y="47.56" width="2.14" height="2.2"/>
            <rect class="cls-9" x="70.15" y="62.86" width="2.14" height="2.2"/>
            <rect class="cls-6" x="70.15" y="56.74" width="2.14" height="2.2"/>
            <rect class="cls-9" x="70.15" y="65.92" width="2.14" height="2.2"/>
            <rect class="cls-9" x="70.15" y="50.62" width="2.14" height="2.2"/>
            <rect class="cls-6" x="70.15" y="53.68" width="2.14" height="2.2"/>
            <rect class="cls-9" x="67.23" y="65.92" width="2.14" height="2.2"/>
            <rect class="cls-9" x="67.23" y="62.86" width="2.14" height="2.2"/>
            <rect class="cls-13" x="67.23" y="59.8" width="2.14" height="2.2"/>
            <rect class="cls-6" x="67.23" y="50.62" width="2.14" height="2.2"/>
            <rect class="cls-6" x="67.23" y="53.68" width="2.14" height="2.2"/>
            <rect class="cls-9" x="67.23" y="56.74" width="2.14" height="2.2"/>
            <rect class="cls-9" x="67.23" y="47.56" width="2.14" height="2.2"/>
            <polygon class="cls-9" points="67.23 46.13 67.23 46.69 69.37 46.69 69.37 44.49 67.23 44.49 67.23 46.13"/>
            <rect class="cls-9" x="70.15" y="59.8" width="2.14" height="2.2"/>
            <rect class="cls-6" x="52.64" y="47.56" width="2.14" height="2.2"/>
            <rect class="cls-13" x="52.64" y="50.62" width="2.14" height="2.2"/>
            <rect class="cls-9" x="52.64" y="41.43" width="2.14" height="2.2"/>
            <rect class="cls-9" x="52.64" y="53.68" width="2.14" height="2.2"/>
            <polygon class="cls-9" points="52.64 46.13 52.64 46.69 54.78 46.69 54.78 44.49 52.64 44.49 52.64 46.13"/>
            <rect class="cls-9" x="52.64" y="56.74" width="2.14" height="2.2"/>
            <rect class="cls-9" x="52.64" y="65.92" width="2.14" height="2.2"/>
            <rect class="cls-9" x="52.64" y="59.8" width="2.14" height="2.2"/>
            <rect class="cls-9" x="52.64" y="62.86" width="2.14" height="2.2"/>
            <rect class="cls-9" x="49.72" y="41.43" width="2.14" height="2.2"/>
            <polygon class="cls-9" points="49.72 46.13 49.72 46.69 51.86 46.69 51.86 44.49 49.72 44.49 49.72 46.13"/>
            <rect class="cls-6" x="49.72" y="47.56" width="2.14" height="2.2"/>
            <rect class="cls-9" x="49.72" y="62.86" width="2.14" height="2.2"/>
            <rect class="cls-9" x="49.72" y="59.8" width="2.14" height="2.2"/>
            <rect class="cls-9" x="49.72" y="50.62" width="2.14" height="2.2"/>
            <rect class="cls-9" x="49.72" y="65.92" width="2.14" height="2.2"/>
            <rect class="cls-9" x="49.72" y="56.74" width="2.14" height="2.2"/>
            <rect class="cls-9" x="49.72" y="53.68" width="2.14" height="2.2"/>
            <rect class="cls-9" x="58.48" y="59.8" width="2.14" height="2.2"/>
            <rect class="cls-9" x="58.48" y="56.74" width="2.14" height="2.2"/>
            <rect class="cls-9" x="58.48" y="62.86" width="2.14" height="2.2"/>
            <rect class="cls-6" x="58.48" y="53.68" width="2.14" height="2.2"/>
            <rect class="cls-9" x="58.48" y="50.62" width="2.14" height="2.2"/>
            <rect class="cls-9" x="58.48" y="47.56" width="2.14" height="2.2"/>
            <rect class="cls-9" x="58.48" y="65.92" width="2.14" height="2.2"/>
            <polygon class="cls-9" points="58.48 46.13 58.48 46.69 60.62 46.69 60.62 44.49 58.48 44.49 58.48 46.13"/>
            <rect class="cls-9" x="58.48" y="41.43" width="2.14" height="2.2"/>
            <rect class="cls-9" x="58.48" y="35.31" width="2.14" height="2.2"/>
            <rect class="cls-9" x="58.48" y="38.37" width="2.14" height="2.2"/>
            <rect class="cls-9" x="58.48" y="32.25" width="2.14" height="2.2"/>
            <rect class="cls-9" x="55.56" y="47.56" width="2.14" height="2.2"/>
            <rect class="cls-9" x="55.56" y="59.8" width="2.14" height="2.2"/>
            <rect class="cls-13" x="55.56" y="50.62" width="2.14" height="2.2"/>
            <rect class="cls-9" x="55.56" y="41.43" width="2.14" height="2.2"/>
            <rect class="cls-13" x="55.56" y="53.68" width="2.14" height="2.2"/>
            <polygon class="cls-9" points="55.56 46.13 55.56 46.69 57.7 46.69 57.7 44.49 55.56 44.49 55.56 46.13"/>
            <rect class="cls-13" x="55.56" y="56.74" width="2.14" height="2.2"/>
            <rect class="cls-9" x="55.56" y="62.86" width="2.14" height="2.2"/>
            <rect class="cls-9" x="55.56" y="65.92" width="2.14" height="2.2"/>
            <rect class="cls-9" x="55.56" y="38.37" width="2.14" height="2.2"/>
            <g class="cls-25">
              <g class="cls-14">
                <g class="cls-22">
                  <g class="cls-10">
                    <rect class="cls-27" x="-44.72" y="-3.64" width="176.64" height="78"/>
                  </g>
                </g>
              </g>
            </g>
          </g>
          <g class="cls-19">
            <g class="cls-21">
              <g class="cls-4">
                <g class="cls-16">
                  <rect class="cls-18" x="-9.09" y="59.58" width="95.08" height="8.68"/>
                </g>
              </g>
            </g>
            <g class="cls-21">
              <g class="cls-2">
                <g class="cls-3">
                  <rect class="cls-1" x="-9.09" y="68.26" width="95.08" height="2.18"/>
                </g>
              </g>
            </g>
            <g class="cls-21">
              <g class="cls-17">
                <g class="cls-8">
                  <rect class="cls-26" x="1.51" y="60.8" width="73.88" height="7.46"/>
                </g>
              </g>
            </g>
          </g>
          <path class="cls-23" d="M51.38,16.53c-4.56.75-8.26,3.37-8.26,5.86,0,.18.02.36.06.53h-.06s3.44,21.72-6.59,32.57c-2.62,2.83-6.93,3.29-9.21,2-1.78-1-2.48-3-1.95-5.02.79-3.02,3.37-4.67,6.59-5.73,2.21-.73,4.97-1.2,4.97-1.2,0,0-2.32-.34-5.35-.1-.56.04-2.24.2-4.1.91-3.04,1.15-5.13,3.2-6.03,5.92-1.09,3.28.08,6.35,2.78,8.39,3.45,2.61,8.73,1.3,11.52-1.06,8.39-7.09,10.12-23.29,9.13-34.72,1.51.8,3.86,1.09,6.5.66,4.56-.75,8.26-3.37,8.26-5.86,0-2.03-2.47-3.34-5.86-3.34-.76,0-1.56.07-2.39.2"/>
        </g>
      </g>
    </g>
  </g>
</svg>